<?xml version="1.0" encoding="UTF-8" standalone="no"?>
<!DOCTYPE svg PUBLIC "-//W3C//DTD SVG 1.1//EN" "http://www.w3.org/Graphics/SVG/1.1/DTD/svg11.dtd">
<svg width="100%" height="100%" viewBox="0 0 255 69" version="1.1" fill="#ffffff" xmlns="http://www.w3.org/2000/svg" xmlns:xlink="http://www.w3.org/1999/xlink" xml:space="preserve" xmlns:serif="http://www.serif.com/" style="fill-rule:evenodd;clip-rule:evenodd;stroke-linejoin:round;stroke-miterlimit:2;">
    <g transform="matrix(1,0,0,1,-1.82589,-2.10437)">
        <g id="Text" transform="matrix(0.2916,0,0,0.2916,-34.6838,13.5349)">
            <g transform="matrix(299.077,0,0,299.077,100.381,192.884)">
                <path d="M0.279,-0.7C0.38,-0.7 0.457,-0.682 0.51,-0.645C0.564,-0.608 0.591,-0.551 0.591,-0.473C0.591,-0.432 0.584,-0.398 0.57,-0.369C0.555,-0.34 0.534,-0.316 0.507,-0.298C0.48,-0.279 0.446,-0.266 0.407,-0.257C0.368,-0.248 0.323,-0.244 0.272,-0.244L0.209,-0.244L0.209,-0L0.083,-0L0.083,-0.683C0.112,-0.69 0.145,-0.694 0.181,-0.697C0.216,-0.699 0.249,-0.7 0.279,-0.7ZM0.288,-0.591C0.256,-0.591 0.23,-0.59 0.209,-0.588L0.209,-0.352L0.27,-0.352C0.331,-0.352 0.377,-0.361 0.41,-0.378C0.443,-0.395 0.459,-0.427 0.459,-0.474C0.459,-0.497 0.455,-0.516 0.446,-0.531C0.437,-0.546 0.425,-0.558 0.41,-0.567C0.395,-0.576 0.377,-0.582 0.356,-0.586C0.335,-0.589 0.312,-0.591 0.288,-0.591Z" style="fill-rule:nonzero;"/>
            </g>
            <g transform="matrix(299.077,0,0,299.077,286.706,192.884)">
                <path d="M0.199,-0L0.078,-0L0.078,-0.523L0.199,-0.523L0.199,-0ZM0.212,-0.676C0.212,-0.653 0.205,-0.635 0.19,-0.622C0.175,-0.609 0.158,-0.602 0.138,-0.602C0.117,-0.602 0.1,-0.609 0.085,-0.622C0.07,-0.635 0.063,-0.653 0.063,-0.676C0.063,-0.699 0.07,-0.718 0.085,-0.731C0.1,-0.744 0.117,-0.751 0.138,-0.751C0.158,-0.751 0.175,-0.744 0.19,-0.731C0.205,-0.718 0.212,-0.699 0.212,-0.676Z" style="fill-rule:nonzero;"/>
            </g>
            <g transform="matrix(299.077,0,0,299.077,369.251,192.884)">
                <path d="M0.077,-0.506C0.1,-0.513 0.131,-0.519 0.168,-0.525C0.205,-0.531 0.247,-0.534 0.292,-0.534C0.335,-0.534 0.37,-0.528 0.399,-0.517C0.428,-0.505 0.451,-0.489 0.468,-0.468C0.485,-0.447 0.497,-0.421 0.503,-0.392C0.51,-0.362 0.514,-0.329 0.514,-0.294L0.514,-0L0.393,-0L0.393,-0.275C0.393,-0.303 0.391,-0.327 0.388,-0.346C0.384,-0.366 0.378,-0.382 0.37,-0.395C0.361,-0.407 0.35,-0.416 0.336,-0.422C0.321,-0.427 0.304,-0.43 0.283,-0.43C0.268,-0.43 0.252,-0.429 0.235,-0.427C0.218,-0.425 0.206,-0.423 0.198,-0.422L0.198,-0L0.077,-0L0.077,-0.506Z" style="fill-rule:nonzero;"/>
            </g>
            <g transform="matrix(299.077,0,0,299.077,544.211,192.884)">
                <path d="M0.071,-0.661L0.192,-0.681L0.192,-0.523L0.378,-0.523L0.378,-0.422L0.192,-0.422L0.192,-0.209C0.192,-0.167 0.199,-0.137 0.212,-0.119C0.225,-0.101 0.248,-0.092 0.28,-0.092C0.302,-0.092 0.322,-0.094 0.339,-0.099C0.356,-0.104 0.369,-0.108 0.379,-0.112L0.399,-0.016C0.385,-0.01 0.367,-0.004 0.344,0.002C0.321,0.009 0.295,0.012 0.264,0.012C0.227,0.012 0.196,0.007 0.171,-0.003C0.146,-0.013 0.126,-0.028 0.111,-0.047C0.096,-0.066 0.086,-0.089 0.08,-0.116C0.074,-0.142 0.071,-0.173 0.071,-0.208L0.071,-0.661Z" style="fill-rule:nonzero;"/>
            </g>
            <g transform="matrix(299.077,0,0,299.077,666.534,192.884)">
                <path d="M0.048,-0.259C0.048,-0.305 0.055,-0.345 0.069,-0.38C0.082,-0.415 0.1,-0.444 0.123,-0.467C0.146,-0.49 0.172,-0.507 0.201,-0.519C0.23,-0.53 0.26,-0.536 0.291,-0.536C0.363,-0.536 0.419,-0.514 0.46,-0.469C0.5,-0.424 0.52,-0.358 0.52,-0.269C0.52,-0.262 0.52,-0.255 0.52,-0.247C0.519,-0.238 0.519,-0.231 0.518,-0.224L0.173,-0.224C0.176,-0.182 0.191,-0.15 0.218,-0.127C0.244,-0.103 0.282,-0.092 0.332,-0.092C0.361,-0.092 0.388,-0.095 0.412,-0.1C0.437,-0.105 0.456,-0.111 0.47,-0.117L0.486,-0.018C0.479,-0.015 0.47,-0.011 0.459,-0.008C0.447,-0.004 0.434,-0.001 0.419,0.002C0.404,0.005 0.387,0.008 0.37,0.01C0.353,0.012 0.335,0.013 0.317,0.013C0.271,0.013 0.231,0.006 0.197,-0.008C0.163,-0.021 0.135,-0.04 0.113,-0.065C0.091,-0.089 0.075,-0.117 0.064,-0.151C0.053,-0.184 0.048,-0.22 0.048,-0.259ZM0.399,-0.313C0.399,-0.33 0.397,-0.345 0.392,-0.361C0.387,-0.376 0.381,-0.389 0.372,-0.4C0.363,-0.41 0.352,-0.419 0.339,-0.426C0.326,-0.432 0.31,-0.435 0.292,-0.435C0.273,-0.435 0.257,-0.432 0.243,-0.425C0.229,-0.418 0.217,-0.408 0.207,-0.397C0.198,-0.386 0.19,-0.373 0.185,-0.358C0.18,-0.343 0.176,-0.328 0.174,-0.313L0.399,-0.313Z" style="fill-rule:nonzero;"/>
            </g>
            <g transform="matrix(299.077,0,0,299.077,837.306,192.884)">
                <path d="M0.198,-0.319C0.213,-0.335 0.23,-0.352 0.247,-0.371C0.264,-0.389 0.281,-0.407 0.298,-0.426C0.315,-0.444 0.331,-0.462 0.345,-0.478C0.361,-0.496 0.373,-0.51 0.384,-0.523L0.527,-0.523C0.494,-0.486 0.459,-0.447 0.422,-0.407C0.385,-0.367 0.348,-0.328 0.311,-0.29C0.33,-0.273 0.351,-0.253 0.373,-0.23C0.395,-0.206 0.417,-0.181 0.437,-0.154C0.458,-0.127 0.477,-0.101 0.495,-0.074C0.513,-0.047 0.528,-0.023 0.54,-0L0.4,-0C0.388,-0.021 0.374,-0.042 0.359,-0.065C0.343,-0.088 0.326,-0.11 0.308,-0.131C0.29,-0.152 0.272,-0.172 0.253,-0.192C0.234,-0.211 0.216,-0.227 0.198,-0.24L0.198,-0L0.077,-0L0.077,-0.756L0.198,-0.776L0.198,-0.319Z" style="fill-rule:nonzero;"/>
            </g>
        </g>
    </g>
</svg>
